<svg width="246" height="78" viewBox="0 0 246 78" fill="none" xmlns="http://www.w3.org/2000/svg">
<rect x="1" y="1" width="244" height="76" rx="3" stroke="white" stroke-width="2"/>
<path fill-rule="evenodd" clip-rule="evenodd" d="M48.6071 15.8704C50.3031 13.7793 53.2135 12.1735 55.7036 12C56.121 14.8587 54.968 17.6585 53.4442 19.6378C51.8153 21.7642 49.0041 23.4082 46.2834 23.3229C45.7872 20.5848 47.0599 17.7673 48.6071 15.8704ZM56.6198 23.014C59.7929 23.014 63.1529 24.7668 65.5437 27.7873C57.7057 32.1429 58.9755 43.4894 66.8953 46.5275C65.8064 48.9744 65.2839 50.0655 63.8797 52.233C61.921 55.2564 59.1624 59.0239 55.7382 59.0503C54.3306 59.0653 53.4072 58.6361 52.4115 58.1733C51.2575 57.6369 50.0064 57.0555 47.7922 57.0681C45.5901 57.0791 44.319 57.6534 43.1492 58.1819C42.1278 58.6433 41.1837 59.0699 39.7645 59.0562C36.3432 59.0268 33.7276 55.627 31.7688 52.6036C26.2954 44.1541 25.7174 34.234 29.0949 28.9578C31.4974 25.2109 35.2864 23.0199 38.8449 23.0199C40.7415 23.0199 42.27 23.572 43.7266 24.0982C45.0523 24.5771 46.3185 25.0345 47.7484 25.0345C49.0715 25.0345 50.1593 24.6169 51.3459 24.1614C52.7694 23.615 54.3351 23.014 56.6198 23.014ZM96.1428 52.9063L95.0639 56.1156H90.4655L96.9905 37.947H102.077L108.602 56.1156H103.952L102.873 52.9063H96.1428ZM101.743 49.49L99.508 42.8386L97.2988 49.49H101.743ZM114.981 43.7185C115.409 43.0456 116 42.5021 116.753 42.088C117.507 41.6739 118.389 41.4669 119.399 41.4669C120.581 41.4669 121.651 41.7688 122.61 42.3727C123.569 42.9766 124.323 43.8393 124.871 44.9608C125.436 46.0823 125.719 47.385 125.719 48.8689C125.719 50.3527 125.436 51.6641 124.871 52.8028C124.323 53.9243 123.569 54.7957 122.61 55.4168C121.651 56.0207 120.581 56.3227 119.399 56.3227C118.406 56.3227 117.524 56.1156 116.753 55.7015C116 55.2874 115.409 54.7525 114.981 54.0969V63H110.588V41.6739H114.981V43.7185ZM121.249 48.8689C121.249 47.7646 120.94 46.9019 120.324 46.2808C119.724 45.6424 118.979 45.3232 118.089 45.3232C117.215 45.3232 116.471 45.6424 115.854 46.2808C115.255 46.9192 114.955 47.7905 114.955 48.8948C114.955 49.999 115.255 50.8704 115.854 51.5088C116.471 52.1472 117.215 52.4664 118.089 52.4664C118.962 52.4664 119.707 52.1472 120.324 51.5088C120.94 50.8531 121.249 49.9731 121.249 48.8689ZM132.416 43.7185C132.844 43.0456 133.435 42.5021 134.188 42.088C134.942 41.6739 135.824 41.4669 136.834 41.4669C138.016 41.4669 139.086 41.7688 140.045 42.3727C141.005 42.9766 141.758 43.8393 142.306 44.9608C142.871 46.0823 143.154 47.385 143.154 48.8689C143.154 50.3527 142.871 51.6641 142.306 52.8028C141.758 53.9243 141.005 54.7957 140.045 55.4168C139.086 56.0207 138.016 56.3227 136.834 56.3227C135.841 56.3227 134.959 56.1156 134.188 55.7015C133.435 55.2874 132.844 54.7525 132.416 54.0969V63H128.023V41.6739H132.416V43.7185ZM138.684 48.8689C138.684 47.7646 138.376 46.9019 137.759 46.2808C137.16 45.6424 136.415 45.3232 135.524 45.3232C134.651 45.3232 133.906 45.6424 133.289 46.2808C132.69 46.9192 132.39 47.7905 132.39 48.8948C132.39 49.999 132.69 50.8704 133.289 51.5088C133.906 52.1472 134.651 52.4664 135.524 52.4664C136.398 52.4664 137.143 52.1472 137.759 51.5088C138.376 50.8531 138.684 49.9731 138.684 48.8689ZM157.427 56.2968C156.109 56.2968 154.927 56.0811 153.882 55.6497C152.837 55.2184 151.998 54.58 151.365 53.7345C150.748 52.8891 150.423 51.8711 150.388 50.6806H155.064C155.132 51.3535 155.364 51.8711 155.757 52.2334C156.151 52.5785 156.665 52.7511 157.299 52.7511C157.95 52.7511 158.463 52.6044 158.84 52.3111C159.217 52.0005 159.405 51.5778 159.405 51.0429C159.405 50.5943 159.251 50.2233 158.943 49.93C158.652 49.6367 158.284 49.3951 157.838 49.2053C157.41 49.0155 156.794 48.7999 155.989 48.5583C154.824 48.196 153.874 47.8336 153.137 47.4713C152.401 47.109 151.767 46.5741 151.236 45.8667C150.705 45.1593 150.44 44.2362 150.44 43.0974C150.44 41.4065 151.048 40.0865 152.264 39.1376C153.48 38.1713 155.064 37.6882 157.016 37.6882C159.003 37.6882 160.604 38.1713 161.82 39.1376C163.036 40.0865 163.687 41.4151 163.772 43.1233H159.02C158.986 42.5366 158.772 42.0794 158.378 41.7516C157.984 41.4065 157.479 41.2339 156.862 41.2339C156.331 41.2339 155.903 41.3806 155.578 41.6739C155.252 41.95 155.09 42.3555 155.09 42.8903C155.09 43.477 155.364 43.9342 155.912 44.262C156.46 44.5899 157.316 44.9436 158.48 45.3232C159.645 45.72 160.587 46.0996 161.306 46.4619C162.043 46.8243 162.676 47.3505 163.207 48.0407C163.738 48.7309 164.004 49.6194 164.004 50.7064C164.004 51.7417 163.738 52.682 163.207 53.5275C162.693 54.3729 161.94 55.0459 160.947 55.5462C159.953 56.0466 158.78 56.2968 157.427 56.2968ZM174.696 52.3628V56.1156H172.461C170.869 56.1156 169.627 55.7274 168.736 54.951C167.846 54.1573 167.401 52.8718 167.401 51.0947V45.349H165.654V41.6739H167.401V38.1541H171.793V41.6739H174.67V45.349H171.793V51.1464C171.793 51.5778 171.896 51.8884 172.102 52.0782C172.307 52.2679 172.65 52.3628 173.129 52.3628H174.696ZM183.668 56.3227C182.264 56.3227 180.996 56.0207 179.866 55.4168C178.753 54.8129 177.871 53.9502 177.22 52.8287C176.586 51.7072 176.27 50.3959 176.27 48.8948C176.27 47.4109 176.595 46.1082 177.246 44.9867C177.897 43.8479 178.787 42.9766 179.917 42.3727C181.048 41.7688 182.315 41.4669 183.719 41.4669C185.124 41.4669 186.391 41.7688 187.521 42.3727C188.652 42.9766 189.542 43.8479 190.193 44.9867C190.844 46.1082 191.169 47.4109 191.169 48.8948C191.169 50.3786 190.835 51.6899 190.167 52.8287C189.517 53.9502 188.617 54.8129 187.47 55.4168C186.34 56.0207 185.072 56.3227 183.668 56.3227ZM183.668 52.4922C184.507 52.4922 185.218 52.1817 185.8 51.5605C186.4 50.9394 186.699 50.0508 186.699 48.8948C186.699 47.7387 186.408 46.8502 185.826 46.229C185.261 45.6079 184.559 45.2973 183.719 45.2973C182.863 45.2973 182.152 45.6079 181.587 46.229C181.022 46.8329 180.739 47.7215 180.739 48.8948C180.739 50.0508 181.013 50.9394 181.562 51.5605C182.127 52.1817 182.829 52.4922 183.668 52.4922ZM197.892 44.0809C198.406 43.2872 199.048 42.666 199.819 42.2174C200.59 41.7516 201.446 41.5186 202.388 41.5186V46.2031H201.181C200.085 46.2031 199.262 46.4447 198.714 46.9278C198.166 47.3937 197.892 48.2219 197.892 49.4124V56.1156H193.5V41.6739H197.892V44.0809ZM218 48.6618C218 49.0759 217.974 49.5073 217.923 49.9559H207.981C208.05 50.8531 208.332 51.5433 208.829 52.0264C209.343 52.4922 209.968 52.7252 210.704 52.7252C211.8 52.7252 212.562 52.2593 212.991 51.3276H217.666C217.426 52.2766 216.99 53.1306 216.356 53.8898C215.739 54.649 214.96 55.2443 214.018 55.6756C213.076 56.107 212.023 56.3227 210.858 56.3227C209.454 56.3227 208.204 56.0207 207.108 55.4168C206.012 54.8129 205.156 53.9502 204.539 52.8287C203.922 51.7072 203.614 50.3959 203.614 48.8948C203.614 47.3937 203.914 46.0823 204.513 44.9608C205.13 43.8393 205.986 42.9766 207.082 42.3727C208.178 41.7688 209.437 41.4669 210.858 41.4669C212.246 41.4669 213.479 41.7602 214.558 42.3468C215.637 42.9335 216.476 43.7703 217.075 44.8573C217.692 45.9443 218 47.2125 218 48.6618ZM213.504 47.4972C213.504 46.738 213.248 46.1341 212.734 45.6855C212.22 45.2369 211.578 45.0126 210.807 45.0126C210.071 45.0126 209.446 45.2283 208.932 45.6596C208.435 46.091 208.127 46.7035 208.007 47.4972H213.504ZM93.4244 22.136C94.0923 21.3509 95.0082 20.9584 96.172 20.9584C96.6577 20.9584 97.103 21.0196 97.5078 21.1419C97.9227 21.2643 98.2971 21.4019 98.6311 21.5549L99.1776 20.3926C98.3275 19.9643 97.3307 19.7502 96.1872 19.7502C95.074 19.7502 94.1278 19.9898 93.3485 20.469C92.5693 20.938 91.9773 21.5956 91.5725 22.4419C91.1778 23.2779 90.9805 24.2465 90.9805 25.3476C90.9805 26.4895 91.1627 27.4836 91.527 28.3298C91.9014 29.1761 92.458 29.8286 93.1967 30.2874C93.9355 30.7462 94.8564 30.9756 95.9595 30.9756C96.5565 30.9756 97.0676 30.9399 97.4926 30.8685C97.9278 30.7972 98.3477 30.685 98.7525 30.5321V29.3392C98.3477 29.4615 97.9328 29.5635 97.5078 29.6451C97.0828 29.7266 96.6324 29.7674 96.1568 29.7674C94.9121 29.7674 93.976 29.3749 93.3485 28.5898C92.7312 27.7946 92.4226 26.7189 92.4226 25.3629C92.4226 23.9967 92.7565 22.9211 93.4244 22.136ZM107.387 30.8227H109.027L104.109 25.21L108.814 19.9032H107.266L102.484 25.1947V19.9032H101.118V30.8227H102.484V25.2864L107.387 30.8227ZM115.997 27.4428L117.302 30.8227H118.714L114.494 19.8573H113.264L109.029 30.8227H110.411L111.701 27.4428H115.997ZM114.373 22.916L115.587 26.2193H112.156L113.386 22.916C113.447 22.7426 113.522 22.5081 113.614 22.2125C113.705 21.9066 113.786 21.5956 113.856 21.2796C113.897 21.4019 113.948 21.5803 114.008 21.8148C114.079 22.0391 114.15 22.2583 114.221 22.4725C114.292 22.6866 114.342 22.8344 114.373 22.916ZM125.725 30.8227H127.091V19.9032H125.725V25.1947C125.128 25.3884 124.592 25.5413 124.116 25.6535C123.64 25.7656 123.104 25.8217 122.507 25.8217C121.819 25.8217 121.318 25.679 121.004 25.3935C120.701 25.0978 120.549 24.6543 120.549 24.063V19.9032H119.183V24.2618C119.183 25.159 119.461 25.8472 120.017 26.3264C120.574 26.7954 121.358 27.0299 122.37 27.0299C122.998 27.0299 123.564 26.9687 124.07 26.8464C124.587 26.7138 125.138 26.5456 125.725 26.3417V30.8227ZM135.535 27.4428L136.84 30.8227H138.252L134.032 19.8573H132.802L128.567 30.8227H129.949L131.239 27.4428H135.535ZM133.911 22.916L135.125 26.2193H131.694L132.924 22.916C132.985 22.7426 133.061 22.5081 133.152 22.2125C133.243 21.9066 133.324 21.5956 133.394 21.2796C133.435 21.4019 133.486 21.5803 133.546 21.8148C133.617 22.0391 133.688 22.2583 133.759 22.4725C133.83 22.6866 133.88 22.8344 133.911 22.916ZM141.025 19.9032H139.75V30.8227H141.268L147.249 21.7384H147.309C147.299 21.8913 147.284 22.1462 147.264 22.503C147.244 22.8599 147.223 23.2524 147.203 23.6806C147.193 24.1089 147.188 24.5116 147.188 24.8888V30.8227H148.463V19.9032H146.945L140.979 28.9416H140.919C140.939 28.7784 140.954 28.5236 140.964 28.1769C140.984 27.8302 141 27.4479 141.01 27.0299C141.02 26.6119 141.025 26.2346 141.025 25.8982V19.9032ZM146.353 18.2515C146.798 17.8538 147.056 17.2727 147.127 16.508H145.867C145.817 17.0382 145.655 17.4052 145.382 17.6092C145.118 17.8029 144.754 17.8997 144.289 17.8997C143.762 17.8997 143.378 17.808 143.135 17.6244C142.902 17.4307 142.76 17.0586 142.71 16.508H141.465C141.516 17.2829 141.743 17.864 142.148 18.2515C142.563 18.6389 143.266 18.8326 144.258 18.8326C145.22 18.8326 145.918 18.6389 146.353 18.2515ZM153.451 30.8227H154.817V21.1113H158.187V19.9032H150.066V21.1113H153.451V30.8227ZM159.821 30.8227H165.878V29.6145H161.187V25.7147H165.605V24.5218H161.187V21.1113H165.878V19.9032H159.821V30.8227ZM175.4 19.9032H172.303V30.8227H176.113C177.277 30.8227 178.193 30.5525 178.861 30.0121C179.539 29.4717 179.878 28.7071 179.878 27.7181C179.878 27.1471 179.771 26.6832 179.559 26.3264C179.346 25.9696 179.053 25.6943 178.679 25.5006C178.314 25.3068 177.904 25.1743 177.449 25.1029V25.0265C178.117 24.9041 178.628 24.6339 178.982 24.2159C179.336 23.7877 179.513 23.2524 179.513 22.6101C179.513 21.6109 179.164 20.9125 178.466 20.5149C177.778 20.1071 176.756 19.9032 175.4 19.9032ZM175.673 24.5524H173.669V21.0808H175.46C176.381 21.0808 177.049 21.2133 177.464 21.4784C177.889 21.7333 178.102 22.1615 178.102 22.763C178.102 23.3544 177.93 23.803 177.586 24.1089C177.242 24.4045 176.604 24.5524 175.673 24.5524ZM173.669 29.6604V25.6994H175.749C176.751 25.6994 177.444 25.8778 177.828 26.2346C178.223 26.5813 178.42 27.0401 178.42 27.611C178.42 28.2228 178.233 28.7173 177.859 29.0945C177.484 29.4717 176.816 29.6604 175.855 29.6604H173.669Z" fill="white"/>
</svg>
