<?xml version="1.0" encoding="UTF-8" standalone="no"?>
<svg
   xmlns:dc="http://purl.org/dc/elements/1.1/"
   xmlns:cc="http://creativecommons.org/ns#"
   xmlns:rdf="http://www.w3.org/1999/02/22-rdf-syntax-ns#"
   xmlns:svg="http://www.w3.org/2000/svg"
   xmlns="http://www.w3.org/2000/svg"
   version="1.1"
   width="175.4641"
   height="92.576599"
   id="svg51"
   viewBox="0 0 175.4641 92.5766">
  <metadata
     id="metadata57">
    <rdf:RDF>
      <cc:Work
         rdf:about="">
        <dc:format>image/svg+xml</dc:format>
        <dc:type
           rdf:resource="http://purl.org/dc/dcmitype/StillImage" />
        <dc:title></dc:title>
      </cc:Work>
    </rdf:RDF>
  </metadata>
  <defs
     id="defs55" />
  <path
     d="m 87.7321,0 c 48.4531,0 87.732,20.724 87.732,46.2883 0,25.5643 -39.2789,46.2883 -87.732,46.2883 C 39.2789,92.5766 0,71.8526 0,46.2883 0,20.724 39.2789,0 87.7321,0 Z"
     style="fill:#29166f;fill-rule:evenodd"
     id="path6" />
  <path
     d="m 87.732,85.2568 c 35.1212,0 63.5926,-15.6191 63.5926,-34.8862 0,-19.2672 -28.4714,-34.8863 -63.5926,-34.8863 -35.1212,0 -63.5926,15.6191 -63.5926,34.8863 0,19.2671 28.4714,34.8862 63.5926,34.8862 z"
     style="fill:#ffffff;fill-rule:evenodd"
     id="path8" />
  <path
     d="M 87.732,15.4844 Z"
     style="fill:none;stroke:#1b1918;stroke-width:0.5669;stroke-linecap:butt;stroke-linejoin:miter;stroke-dasharray:none"
     id="path10" />
  <path
     d="M 87.732,15.4844 Z"
     style="fill:none;stroke:#1b1918;stroke-width:0.5669;stroke-linecap:butt;stroke-linejoin:miter;stroke-dasharray:none"
     id="path12" />
  <path
     d="m 24.6079,34.1872 -0.5194,0.8457 -1.0883,-0.2073 -0.955,1.555 0.6847,0.8643 -0.5099,0.8303 -2.9526,-3.8866 0.5094,-0.8294 z m -2.4192,0.4904 -1.7659,-0.3425 1.1135,1.4048 z m 1.5075,-1.5599 0.4936,-0.7531 c 0.2672,0.1463 0.5056,0.2 0.7183,0.1607 0.2127,-0.0392 0.4062,-0.1675 0.5812,-0.3843 0.185,-0.229 0.2761,-0.4414 0.2727,-0.6361 -0.004,-0.1947 -0.07,-0.345 -0.2002,-0.4501 -0.084,-0.0679 -0.1749,-0.1004 -0.2735,-0.0996 -0.0977,10e-4 -0.2179,0.0458 -0.3593,0.1331 -0.0969,0.0593 -0.301,0.2076 -0.6147,0.4444 -0.4036,0.3043 -0.7369,0.4777 -1.0006,0.5194 -0.3703,0.059 -0.6955,-0.0253 -0.9766,-0.2522 -0.1804,-0.1457 -0.309,-0.3339 -0.3845,-0.5623 -0.0749,-0.2293 -0.076,-0.4724 -0.003,-0.7309 0.0726,-0.2586 0.2177,-0.5226 0.4372,-0.7946 0.3574,-0.4425 0.7249,-0.697 1.1021,-0.7613 0.3779,-0.0652 0.7345,0.0294 1.0726,0.2833 l -0.5541,0.7369 c -0.2076,-0.1172 -0.3912,-0.1579 -0.5516,-0.1227 -0.1605,0.0351 -0.322,0.1525 -0.483,0.3519 -0.1663,0.2061 -0.2539,0.4022 -0.2619,0.5876 -0.005,0.1195 0.0373,0.2167 0.1297,0.2912 0.084,0.0679 0.1843,0.0903 0.3008,0.0673 0.1492,-0.0279 0.4046,-0.1824 0.7671,-0.4628 0.3617,-0.2811 0.6544,-0.4682 0.8754,-0.5633 0.2226,-0.0952 0.4473,-0.129 0.6755,-0.0998 0.2284,0.0291 0.4541,0.1338 0.6775,0.3142 0.2027,0.1636 0.3478,0.3733 0.4338,0.6293 0.086,0.2559 0.0894,0.5214 0.009,0.7966 -0.0799,0.2759 -0.2446,0.5676 -0.4928,0.875 -0.3613,0.4475 -0.7417,0.708 -1.1421,0.7807 -0.3997,0.0735 -0.8156,-0.0268 -1.2482,-0.2985 z m 2.8431,-3.4048 0.5891,-0.681 c 0.2454,0.1804 0.4746,0.2652 0.6906,0.2545 0.2161,-0.0107 0.4248,-0.1122 0.627,-0.3039 0.2137,-0.2026 0.3322,-0.4009 0.3546,-0.5944 0.0224,-0.1934 -0.0237,-0.3512 -0.1388,-0.4727 -0.0743,-0.0784 -0.16,-0.1226 -0.2578,-0.135 -0.0971,-0.0116 -0.2222,0.0165 -0.3738,0.0844 -0.1039,0.0459 -0.3259,0.1659 -0.6682,0.359 -0.4404,0.2482 -0.7937,0.3758 -1.0606,0.3822 -0.3748,0.009 -0.6861,-0.1173 -0.9345,-0.3794 -0.1596,-0.1684 -0.2621,-0.3719 -0.3067,-0.6083 -0.0438,-0.2372 -0.0126,-0.4783 0.0936,-0.7249 0.1062,-0.2467 0.285,-0.4891 0.5387,-0.7296 0.4128,-0.3913 0.8108,-0.5949 1.1933,-0.6086 0.3831,-0.0144 0.724,0.1265 1.0255,0.423 l -0.6469,0.657 c -0.1902,-0.1437 -0.3668,-0.2084 -0.5305,-0.1948 -0.1636,0.0136 -0.3392,0.1086 -0.5253,0.2849 -0.1921,0.1821 -0.3049,0.365 -0.3375,0.5476 -0.0211,0.1178 0.008,0.2197 0.09,0.3058 0.0743,0.0784 0.1707,0.114 0.2892,0.1067 0.1516,-0.008 0.4253,-0.1273 0.8218,-0.3572 0.3957,-0.2306 0.7106,-0.3773 0.9422,-0.4423 0.2333,-0.0648 0.4604,-0.0685 0.6828,-0.009 0.2224,0.0591 0.4324,0.1929 0.6298,0.4012 0.1793,0.1891 0.2953,0.4162 0.3467,0.6813 0.0513,0.2651 0.0195,0.5287 -0.0968,0.7908 -0.1157,0.2628 -0.3177,0.5302 -0.6043,0.8019 -0.4175,0.3957 -0.8291,0.6034 -1.2356,0.6225 -0.4059,0.0198 -0.8048,-0.1346 -1.1976,-0.4613 z m 2.7318,-3.7079 c -0.2817,-0.3686 -0.4628,-0.7207 -0.5443,-1.0558 -0.0592,-0.2466 -0.0731,-0.4986 -0.0428,-0.7537 0.0303,-0.2551 0.103,-0.4826 0.2175,-0.6834 0.1528,-0.2675 0.3762,-0.5142 0.6708,-0.7392 0.5335,-0.4078 1.086,-0.5675 1.6593,-0.4818 0.5732,0.0872 1.0849,0.4253 1.5357,1.0152 0.447,0.5849 0.6378,1.1642 0.5727,1.7365 -0.0645,0.5732 -0.3634,1.0629 -0.8944,1.4687 -0.5378,0.411 -1.0915,0.5742 -1.6602,0.4877 -0.5681,-0.0858 -1.0732,-0.417 -1.5143,-0.9942 z m 0.7336,-0.5994 c 0.3132,0.4098 0.6457,0.6477 0.9971,0.7151 0.3508,0.0664 0.6725,-0.0115 0.9636,-0.234 0.292,-0.2231 0.4506,-0.511 0.4781,-0.8639 0.0261,-0.3531 -0.1211,-0.7393 -0.442,-1.1592 -0.3171,-0.4149 -0.6446,-0.6551 -0.9829,-0.7192 -0.338,-0.0655 -0.6573,0.0172 -0.9594,0.2481 -0.3013,0.2302 -0.4654,0.5196 -0.4921,0.8666 -0.0261,0.3479 0.1193,0.73 0.4376,1.1465 z m 6.2813,-3.7205 0.8999,-0.2374 c 0.1483,0.4977 0.1511,0.9335 0.01,1.3081 -0.1419,0.3737 -0.4194,0.6896 -0.8342,0.9473 -0.5137,0.3192 -1.0446,0.4058 -1.5936,0.2607 -0.5482,-0.1458 -1.0116,-0.5225 -1.39,-1.1315 -0.3997,-0.6432 -0.544,-1.2468 -0.4334,-1.8093 0.1107,-0.5625 0.4372,-1.0123 0.9788,-1.3488 0.4732,-0.294 0.9446,-0.3923 1.4135,-0.2958 0.2791,0.056 0.558,0.2119 0.8391,0.4675 l -0.6579,0.663 c -0.17,-0.1712 -0.3637,-0.2703 -0.5807,-0.2963 -0.2179,-0.0255 -0.4299,0.0265 -0.6368,0.155 -0.287,0.1783 -0.4563,0.4256 -0.5064,0.7423 -0.0517,0.3163 0.0661,0.7045 0.3523,1.1652 0.3029,0.4875 0.6074,0.7809 0.9114,0.8789 0.3054,0.0982 0.5982,0.0598 0.8798,-0.1152 0.2078,-0.1291 0.346,-0.306 0.4132,-0.5311 0.0672,-0.225 0.0466,-0.4989 -0.0647,-0.8226 z m 2.2937,0.5715 -2.2902,-3.9316 0.7962,-0.4638 2.2903,3.9316 z m 5.1771,-2.8191 -0.8785,0.4617 -0.8297,-0.7342 -1.6154,0.8488 0.1471,1.0928 -0.8626,0.4533 -0.5524,-4.8496 0.8616,-0.4527 z m -2.3302,-0.8143 -1.343,-1.1966 0.2395,1.7765 z m 3.3009,0.4269 -1.5944,-3.4285 -1.2216,0.568 -0.3242,-0.6972 3.2729,-1.522 0.3242,0.6972 -1.2158,0.5655 1.5944,3.4284 z m 2.5894,-1.1337 -1.8045,-4.1769 0.8459,-0.3654 1.8045,4.1768 z m 0.7197,-2.7646 c -0.1554,-0.4371 -0.2201,-0.8277 -0.1952,-1.1716 0.0191,-0.253 0.0829,-0.4971 0.1899,-0.7306 0.1068,-0.2337 0.2457,-0.4281 0.4161,-0.5842 0.2273,-0.2079 0.5155,-0.3744 0.8647,-0.4986 0.6327,-0.225 1.2076,-0.2079 1.7272,0.049 0.5191,0.2584 0.9028,0.7368 1.1515,1.4363 0.2466,0.6936 0.2511,1.3035 0.014,1.8285 -0.2368,0.526 -0.6712,0.9007 -1.3008,1.1247 -0.6377,0.2267 -1.2149,0.2127 -1.7298,-0.0437 -0.5146,-0.2554 -0.8942,-0.7252 -1.1376,-1.4098 z m 0.8819,-0.3461 c 0.1728,0.486 0.4165,0.814 0.7304,0.9857 0.3137,0.1707 0.6437,0.1949 0.9891,0.0721 0.3462,-0.1231 0.5853,-0.3487 0.7194,-0.6762 0.1328,-0.3283 0.1109,-0.7409 -0.0662,-1.2389 -0.1749,-0.492 -0.4132,-0.8209 -0.7157,-0.9854 -0.3018,-0.1658 -0.6311,-0.1847 -0.9894,-0.0573 -0.3572,0.127 -0.6019,0.3523 -0.7336,0.6745 -0.1312,0.3232 -0.1097,0.7315 0.066,1.2255 z m 4.7136,0.7601 -1.382,-4.3351 0.8496,-0.2708 2.7103,2.3364 -0.9262,-2.9051 0.8113,-0.2587 1.382,4.3351 -0.8769,0.2795 -2.6653,-2.2896 0.9085,2.8497 z m 5.3868,-3.9032 c -0.1096,-0.4508 -0.1337,-0.846 -0.0734,-1.1855 0.0451,-0.2497 0.1336,-0.4859 0.264,-0.7072 0.1304,-0.2214 0.2885,-0.4004 0.4742,-0.5382 0.2475,-0.1833 0.5512,-0.3193 0.9115,-0.4069 0.6525,-0.1585 1.2225,-0.0824 1.7129,0.2267 0.4897,0.3105 0.8221,0.8259 0.9974,1.5473 0.1739,0.7153 0.1155,1.3225 -0.1745,1.8202 -0.2896,0.4988 -0.7603,0.8268 -1.4097,0.9846 -0.6577,0.1599 -1.2303,0.0866 -1.7161,-0.2215 -0.4856,-0.3071 -0.8147,-0.8135 -0.9863,-1.5195 z m 0.9128,-0.2535 c 0.1219,0.5012 0.3305,0.8527 0.625,1.0558 0.2944,0.202 0.6203,0.2601 0.9764,0.1735 0.3571,-0.0868 0.6181,-0.2865 0.7853,-0.5985 0.1659,-0.3128 0.1866,-0.7255 0.0618,-1.2391 -0.1233,-0.5073 -0.3265,-0.859 -0.6105,-1.0538 -0.283,-0.196 -0.6086,-0.2488 -0.9781,-0.159 -0.3684,0.0896 -0.6351,0.2884 -0.7992,0.5954 -0.1638,0.308 -0.1845,0.7163 -0.0607,1.2257 z m 4.6197,1.2816 -0.8498,-4.4699 3.0715,-0.584 0.1436,0.7554 -2.1663,0.4119 0.2018,1.0612 1.8729,-0.3561 0.1436,0.7554 -1.8729,0.3561 0.3609,1.8979 z m 5.5571,-1.0064 -0.5747,-4.5136 1.4614,-0.1861 c 0.5537,-0.0704 0.9169,-0.0943 1.0907,-0.0705 0.2672,0.0354 0.5024,0.1549 0.7057,0.3597 0.2033,0.2046 0.3278,0.4867 0.3736,0.846 0.0353,0.2774 0.0144,0.516 -0.0614,0.7178 -0.0767,0.202 -0.185,0.3664 -0.3257,0.4942 -0.1408,0.1268 -0.2893,0.2183 -0.4445,0.2734 -0.2121,0.0707 -0.5234,0.1328 -0.9352,0.1852 l -0.5926,0.0754 0.2167,1.7021 z m 0.4365,-3.8672 0.1637,1.286 0.4969,-0.0633 C 71.5639,8.9942 71.7993,8.9397 71.9141,8.877 72.0289,8.8143 72.1142,8.7288 72.1695,8.6182 72.2249,8.5086 72.2447,8.3876 72.2276,8.2531 72.2066,8.0881 72.141,7.9587 72.0318,7.8638 71.9214,7.7689 71.7921,7.717 71.6404,7.7086 71.5297,7.7026 71.3108,7.7196 70.9831,7.7613 Z m 3.7681,3.331 -0.4522,-4.5274 1.9254,-0.1923 c 0.4837,-0.0483 0.8399,-0.0424 1.0672,0.0168 0.2283,0.0592 0.4177,0.1861 0.5702,0.3806 0.1525,0.1955 0.2426,0.426 0.2694,0.6936 0.034,0.3404 -0.0371,0.6307 -0.2142,0.8718 -0.1771,0.2413 -0.4604,0.4101 -0.8509,0.5077 0.2086,0.0951 0.3835,0.2054 0.5249,0.3307 0.1423,0.1252 0.3396,0.3535 0.5919,0.6838 l 0.6405,0.828 -1.0929,0.1092 -0.7543,-0.9231 C 76.2681,9.6 76.0847,9.3949 75.9881,9.3119 75.8926,9.2299 75.7946,9.1758 75.6943,9.1518 75.5929,9.1278 75.4374,9.1263 75.2266,9.1468 l -0.1855,0.0186 0.1889,1.8907 z m 0.656,-2.703 0.6766,-0.0676 C 76.0841,8.3337 76.3551,8.2875 76.4611,8.2396 76.5659,8.1919 76.6459,8.119 76.698,8.0223 76.7511,7.9254 76.7703,7.8085 76.7568,7.6725 76.7415,7.5197 76.6881,7.4016 76.5975,7.3149 76.5071,7.2292 76.3863,7.1816 76.2363,7.1721 76.1604,7.1691 75.9375,7.186 75.5677,7.2229 l -0.7135,0.0713 z m 3.8822,2.2908 -0.3033,-4.5399 0.9195,-0.0615 0.3033,4.54 z M 81.8071,10.5567 79.9725,6.086 80.967,6.0404 82.2756,9.352 83.229,5.9367 84.2067,5.8918 82.7984,10.5112 Z m 6.6992,-0.17 -0.9923,0.0131 -0.4067,-1.0305 -1.8247,0.0241 -0.3643,1.0408 -0.9744,0.0129 1.7063,-4.573 0.9733,-0.0129 z M 86.7985,8.6043 86.144,6.9289 85.552,8.6209 Z M 89.5482,10.4315 89.62,6.6511 88.273,6.6255 88.2876,5.8567 91.8965,5.9252 91.8819,6.6941 90.5412,6.6686 90.4694,10.449 Z m 2.8573,0.0804 0.1818,-4.5464 3.3653,0.1346 -0.0307,0.7683 -2.4446,-0.0978 -0.0404,1.0096 2.2732,0.0909 -0.0307,0.7684 -2.2732,-0.091 -0.0493,1.2319 2.5335,0.1013 -0.0307,0.7683 z m 7.01,0.4733 0.3532,-3.7645 -1.3414,-0.1259 0.0718,-0.7656 3.5938,0.3372 -0.0719,0.7656 -1.335,-0.1253 -0.3532,3.7646 z m 2.8232,-1.9634 c 0.0585,-0.4602 0.1771,-0.838 0.3546,-1.1335 0.1313,-0.2171 0.2984,-0.4062 0.4992,-0.5663 0.2009,-0.1603 0.4124,-0.2711 0.635,-0.3334 0.2967,-0.083 0.629,-0.1015 0.9967,-0.0547 0.6661,0.0848 1.1714,0.3595 1.5191,0.8233 0.3465,0.4648 0.473,1.065 0.3792,1.8014 -0.0929,0.7303 -0.3643,1.2766 -0.8128,1.6379 -0.4487,0.3625 -1.0055,0.5009 -1.6684,0.4165 -0.6714,-0.0855 -1.1801,-0.3584 -1.5239,-0.8197 -0.3439,-0.4602 -0.4705,-1.0507 -0.3787,-1.7715 z m 0.9431,0.0892 c -0.0651,0.5116 0.004,0.9144 0.2069,1.2093 0.2029,0.2938 0.4865,0.4644 0.85,0.5107 0.3646,0.0465 0.6797,-0.0469 0.9472,-0.2786 0.2668,-0.233 0.4334,-0.6111 0.5002,-1.1354 0.0659,-0.518 0.002,-0.919 -0.194,-1.2024 -0.1944,-0.2841 -0.4797,-0.4496 -0.8569,-0.4977 -0.3761,-0.0479 -0.6962,0.0427 -0.9591,0.2708 -0.263,0.2292 -0.4281,0.6032 -0.4943,1.1233 z m 4.6742,-1.6255 0.9064,0.1655 -0.4427,2.4255 c -0.0704,0.3855 -0.1045,0.6366 -0.1033,0.7542 0.005,0.1904 0.0687,0.3549 0.1924,0.4916 0.1244,0.1379 0.3113,0.2291 0.5613,0.2747 0.2532,0.0462 0.4544,0.0291 0.6029,-0.0525 0.1483,-0.0817 0.2488,-0.1957 0.3029,-0.3442 0.054,-0.1484 0.1137,-0.3991 0.1783,-0.7533 l 0.4523,-2.4777 0.9065,0.1655 -0.4296,2.3537 c -0.0982,0.5376 -0.1916,0.9135 -0.281,1.1265 -0.0895,0.213 -0.2133,0.3842 -0.3726,0.5134 -0.1582,0.1294 -0.3553,0.2182 -0.5907,0.2689 -0.2363,0.0506 -0.5302,0.0443 -0.8834,-0.0202 -0.4262,-0.0778 -0.7402,-0.1857 -0.942,-0.3248 -0.2018,-0.1391 -0.3523,-0.299 -0.4516,-0.4808 -0.0993,-0.1817 -0.1525,-0.3616 -0.1615,-0.543 -0.0125,-0.2672 0.0276,-0.6517 0.119,-1.1529 z m 3.6908,5.3336 0.9754,-4.4442 1.89,0.4148 c 0.4748,0.1042 0.8115,0.2204 1.0092,0.3473 0.1988,0.1271 0.3393,0.3065 0.424,0.5387 0.0843,0.2332 0.0984,0.4802 0.0408,0.743 -0.0734,0.3342 -0.2311,0.588 -0.4742,0.7623 -0.2432,0.1744 -0.565,0.2469 -0.9664,0.2184 0.1687,0.1553 0.3008,0.3144 0.3962,0.4773 0.0965,0.1632 0.2132,0.4416 0.3505,0.8338 l 0.3518,0.9859 -1.0727,-0.2354 -0.4306,-1.1116 c -0.1551,-0.3951 -0.2656,-0.6471 -0.3317,-0.7559 -0.0653,-0.1077 -0.1418,-0.1895 -0.2296,-0.2435 -0.089,-0.0541 -0.2364,-0.1039 -0.4433,-0.1493 l -0.182,-0.0399 -0.4074,1.8559 z m 1.4626,-2.366 0.6642,0.1458 c 0.4303,0.0945 0.7023,0.1346 0.8179,0.122 0.1145,-0.0127 0.2132,-0.0572 0.2927,-0.1331 0.0806,-0.0756 0.135,-0.1807 0.1643,-0.3142 0.033,-0.1499 0.019,-0.2788 -0.0402,-0.3894 -0.0595,-0.1095 -0.1595,-0.1922 -0.2991,-0.2478 -0.0712,-0.0265 -0.2884,-0.0795 -0.6514,-0.1592 l -0.7004,-0.1537 z m 2.9739,3.407 1.0957,-4.4161 0.8944,0.2219 -1.0957,4.4161 z m 1.9093,-1.0092 0.8857,0.1626 c -0.031,0.303 0.012,0.5435 0.1308,0.7243 0.1188,0.1808 0.3121,0.3093 0.5798,0.3863 0.2829,0.0816 0.5139,0.0831 0.6921,0.004 0.178,-0.0788 0.2907,-0.1985 0.3371,-0.3593 0.0299,-0.1038 0.0245,-0.2001 -0.0144,-0.2907 -0.0392,-0.0896 -0.1269,-0.1831 -0.2622,-0.2794 -0.0923,-0.0663 -0.3082,-0.1968 -0.6482,-0.3939 -0.4372,-0.2539 -0.7263,-0.4936 -0.8671,-0.7205 -0.1982,-0.3183 -0.2468,-0.6508 -0.1468,-0.9978 0.0642,-0.223 0.1877,-0.4145 0.3688,-0.5727 0.1823,-0.1581 0.406,-0.2535 0.6724,-0.2869 0.2664,-0.0335 0.5661,-0.002 0.9019,0.0945 0.5466,0.1574 0.9238,0.3972 1.1296,0.72 0.2067,0.3229 0.258,0.6882 0.1553,1.0984 l -0.8943,-0.2246 c 0.0275,-0.2367 -0.006,-0.4217 -0.101,-0.5559 -0.0947,-0.1342 -0.2656,-0.2375 -0.5118,-0.3084 -0.2545,-0.0733 -0.4693,-0.0779 -0.6432,-0.0133 -0.1123,0.0415 -0.1852,0.1185 -0.2181,0.2326 -0.0299,0.1038 -0.0116,0.2049 0.0548,0.3034 0.0837,0.1266 0.3253,0.302 0.7245,0.5272 0.3993,0.2242 0.6854,0.4212 0.8589,0.588 0.1742,0.1682 0.2925,0.3621 0.3543,0.5837 0.0618,0.2217 0.0529,0.4705 -0.0265,0.7463 -0.0721,0.2504 -0.2091,0.4656 -0.4115,0.6442 -0.2025,0.1786 -0.4458,0.2849 -0.7307,0.3174 -0.2853,0.0336 -0.6181,-0.005 -0.9977,-0.1143 -0.5526,-0.1592 -0.9404,-0.4086 -1.1629,-0.7494 -0.2229,-0.3398 -0.292,-0.762 -0.2096,-1.2662 z m 3.8762,2.6839 1.505,-4.2939 1.3023,0.4565 -0.2567,3.1983 1.787,-2.662 1.3054,0.4576 -1.505,4.2938 -0.8036,-0.2816 1.1818,-3.3814 -2.0314,3.0836 -0.8356,-0.2928 0.3422,-3.6757 -1.1878,3.3793 z m 10.174,3.9943 -0.9124,-0.3902 0.0459,-1.1069 -1.6778,-0.7175 -0.755,0.8037 -0.8959,-0.3831 3.4133,-3.4889 0.895,0.3827 z m -0.8387,-2.3215 0.0807,-1.797 -1.2269,1.3068 z m 3.9009,2.0824 0.3533,-0.6829 1.7555,0.9078 -0.8339,1.6124 c -0.2564,0.0785 -0.5793,0.0964 -0.9695,0.0555 -0.3888,-0.0413 -0.7497,-0.1481 -1.0828,-0.3203 -0.4224,-0.2184 -0.7445,-0.4971 -0.9668,-0.8374 -0.2213,-0.3398 -0.3256,-0.7169 -0.3128,-1.1288 0.0127,-0.412 0.12,-0.8131 0.3209,-1.2017 0.218,-0.4215 0.5001,-0.7502 0.8458,-0.9875 0.3462,-0.2359 0.7343,-0.3548 1.1644,-0.3541 0.3292,-3e-4 0.6855,0.0994 1.0712,0.2989 0.5014,0.2593 0.8393,0.5675 1.0125,0.9242 0.1718,0.3571 0.2031,0.7417 0.0913,1.1561 l -0.8916,-0.2679 c 0.0462,-0.2277 0.0202,-0.4403 -0.0771,-0.6373 -0.0968,-0.1955 -0.2628,-0.3541 -0.498,-0.4757 -0.3556,-0.1839 -0.6971,-0.2174 -1.0242,-0.0992 -0.327,0.1182 -0.6061,0.3995 -0.8362,0.8445 -0.2487,0.4808 -0.3287,0.8961 -0.2401,1.2459 0.0894,0.3504 0.3057,0.6148 0.6509,0.7933 0.1703,0.0881 0.359,0.1428 0.5648,0.1645 0.2067,0.0223 0.3958,0.0163 0.5687,-0.0159 l 0.2651,-0.5127 z m 1.7283,2.8147 2.4666,-3.8234 2.8302,1.8258 -0.4169,0.6462 -2.0558,-1.3263 -0.5477,0.8491 1.9116,1.2332 -0.4168,0.6462 -1.9117,-1.2333 -0.6683,1.036 2.1306,1.3745 -0.4168,0.6461 z m 3.5982,2.2494 2.7628,-3.6151 0.7086,0.5415 -0.3638,3.5597 1.8516,-2.4226 0.6766,0.517 -2.7629,3.6151 -0.7313,-0.5588 0.3511,-3.4961 -1.8161,2.3764 z m 6.9326,3.4307 0.4961,0.7874 c -0.4303,0.2906 -0.8454,0.4239 -1.2451,0.4013 -0.399,-0.0234 -0.7836,-0.1936 -1.1537,-0.512 -0.4584,-0.3944 -0.7002,-0.875 -0.7262,-1.4423 -0.0253,-0.5667 0.1953,-1.1217 0.663,-1.6652 0.4939,-0.574 1.0265,-0.8926 1.5963,-0.9556 0.5698,-0.063 1.0967,0.1138 1.58,0.5297 0.4223,0.3633 0.6574,0.7835 0.7059,1.2598 0.0302,0.2831 -0.035,0.5959 -0.1946,0.9406 l -0.8297,-0.429 c 0.1123,-0.2134 0.1489,-0.4279 0.1087,-0.6427 -0.0409,-0.2155 -0.1541,-0.4023 -0.3388,-0.5612 -0.256,-0.2203 -0.5427,-0.3077 -0.8598,-0.2607 -0.3173,0.0456 -0.6524,0.2743 -1.0061,0.6853 -0.3744,0.4351 -0.5631,0.8135 -0.5654,1.1329 -0.002,0.3208 0.1222,0.5887 0.3735,0.8049 0.1854,0.1595 0.3956,0.2384 0.6304,0.2351 0.2349,-0.003 0.4901,-0.1051 0.7655,-0.3083 z m 0.06,2.4492 3.313,-3.1187 0.6316,0.671 -3.313,3.1187 z m 1.2543,1.289 3.5058,-2.9002 2.1468,2.5951 -0.5924,0.4901 -1.5595,-1.8851 -0.7785,0.644 1.4501,1.753 -0.5925,0.4901 -1.4501,-1.7529 -0.9499,0.7858 1.6162,1.9537 -0.5925,0.4901 z m 3.8047,2.3236 0.5414,0.7195 c -0.2281,0.2018 -0.3593,0.408 -0.3944,0.6215 -0.0351,0.2134 0.0202,0.4388 0.1649,0.6769 0.1529,0.2516 0.3219,0.4092 0.5062,0.4719 0.1844,0.0626 0.3484,0.0509 0.4914,-0.036 0.0923,-0.0561 0.1536,-0.1306 0.1863,-0.2236 0.0318,-0.0924 0.0307,-0.2206 -0.004,-0.3832 -0.0229,-0.1112 -0.0934,-0.3535 -0.21,-0.7288 -0.1497,-0.4828 -0.2,-0.8551 -0.15,-1.1173 0.0698,-0.3685 0.2593,-0.6459 0.5679,-0.8336 0.1982,-0.1204 0.4188,-0.1777 0.6593,-0.1715 0.2411,0.007 0.4703,0.0885 0.6889,0.2443 0.2187,0.1559 0.418,0.3818 0.5995,0.6805 0.2955,0.486 0.4106,0.918 0.3434,1.2947 -0.0667,0.3777 -0.2763,0.6811 -0.6297,0.9133 l -0.5058,-0.7708 c 0.1806,-0.1556 0.281,-0.3146 0.3022,-0.4775 0.0212,-0.1629 -0.0346,-0.3546 -0.1677,-0.5736 -0.1375,-0.2262 -0.2924,-0.375 -0.4641,-0.4454 -0.1107,-0.0455 -0.2166,-0.0382 -0.318,0.0234 -0.0923,0.0561 -0.1474,0.143 -0.1652,0.2604 -0.0242,0.1498 0.0348,0.4424 0.1758,0.8785 0.1421,0.4354 0.219,0.7742 0.2337,1.0144 0.0143,0.2416 -0.03,0.4644 -0.1347,0.6694 -0.1047,0.205 -0.2797,0.382 -0.525,0.5311 -0.2226,0.1353 -0.4691,0.2008 -0.739,0.1952 -0.27,-0.006 -0.5209,-0.0924 -0.7526,-0.2614 -0.2326,-0.1685 -0.4513,-0.4223 -0.6565,-0.7598 -0.2988,-0.4915 -0.4151,-0.9377 -0.348,-1.3391 0.0661,-0.4009 0.3013,-0.7583 0.7035,-1.0734 z"
     style="fill:#ffffff;fill-rule:evenodd"
     id="path14" />
  <path
     d="m 24.1394,50.3706 h 127.1852 l -0.021,0.9043 H 24.1604 Z"
     style="fill:#29166f;fill-rule:evenodd"
     id="path16" />
  <path
     d="M 138.2728,71.5468 C 122.4877,58.4199 49.8639,58.4774 36.9919,71.4031"
     style="fill:none;stroke:#29166f;stroke-width:1.0247;stroke-linecap:butt;stroke-linejoin:miter;stroke-dasharray:none"
     id="path18" />
  <path
     d="m 107.7939,50.3706 c -0.2698,5.5309 -1.8422,11.1515 -4.6369,16.0204"
     style="fill:none;stroke:#29166f;stroke-width:1.0136;stroke-linecap:butt;stroke-linejoin:miter;stroke-dasharray:none"
     id="path20" />
  <path
     d="m 66.2528,50.3706 c 0.4026,5.3976 2.2998,10.8586 5.6023,15.6142"
     style="fill:none;stroke:#29166f;stroke-width:1.0135;stroke-linecap:butt;stroke-linejoin:miter;stroke-dasharray:none"
     id="path22" />
  <path
     d="m 87.506,50.3706 c 0,10.8569 0,10.6893 0,14.2671"
     style="fill:none;stroke:#29166f;stroke-width:1.0135;stroke-linecap:butt;stroke-linejoin:miter;stroke-dasharray:none"
     id="path24" />
  <path
     d="m 130.5445,50.3706 c 0.6263,6.5598 -1.7064,13.1458 -7.0996,18.4769"
     style="fill:none;stroke:#29166f;stroke-width:1.0136;stroke-linecap:butt;stroke-linejoin:miter;stroke-dasharray:none"
     id="path26" />
  <path
     d="m 44.5195,50.3706 c 0.3539,6.3876 2.4165,12.8788 6.0824,18.5018"
     style="fill:none;stroke:#29166f;stroke-width:1.0131;stroke-linecap:butt;stroke-linejoin:miter;stroke-dasharray:none"
     id="path28" />
  <path
     d="m 105.3554,46.397 5.6106,0.008 c 0.5882,-0.916 0.8091,-2.4197 1.0248,-3.574 l 6.2975,0.007 c 0.541,0.874 0.8093,2.3722 1.0346,3.5757 l 5.9532,-0.0225 -6.8628,-21.7271 -6.0393,0.004 z m 7.9061,-8.3201 4.0159,0.0609 -1.9379,-7.6052 z m -63.0737,8.3129 5.5783,0.008 1.0439,-3.5469 6.5389,0.005 0.8401,3.5334 5.8855,0.0231 -6.8036,-21.6769 -6.186,-0.08 z m 7.9085,-8.312 3.9829,0.0431 c -0.233,-1.281 -0.632,-2.5354 -0.9175,-3.682 -0.2793,-1.1215 -0.5916,-2.9277 -1.216,-3.759 z m 31.0632,-8.0367 5.7751,-0.001 -0.008,16.3105 5.6633,0.0642 0.005,-16.3439 5.7906,-0.0591 -0.002,-5.2769 -17.162,-0.0763 z m -17.24,16.3678 5.6009,-0.007 0.1099,-17.2943 c 2.1499,-0.0374 4.0495,-0.0739 4.2962,2.0517 0.2757,2.3749 -1.4962,2.669 -3.5762,2.8201 l 0.0115,4.3363 c 3.085,0.1573 6.0187,-0.0653 7.5098,-1.8994 1.4203,-1.7472 2.0701,-5.05 1.1969,-7.8973 -0.8229,-2.6837 -2.3773,-3.7067 -5.6636,-3.8406 -2.4239,-0.0986 -7.1643,-0.2194 -9.4464,0.07 z"
     style="fill:#29166f;fill-rule:evenodd"
     id="path30" />
  <path
     d="m 57.6667,71.6436 c 0.064,2.9501 0.8236,1.5853 4.1453,2.2454 -0.3767,0.8876 -3.7839,4.3953 -4.8479,5.5343 -1.3502,1.4454 -2.7377,1.7216 -1.3296,4.0903 0.5909,0.9939 0.5735,0.9449 1.9993,1.0456 1.8157,0.1284 3.8413,0.7235 5.3547,0.6338 1.2743,-2.9769 -1.8625,-2.5114 -4.5308,-2.8373 0.4665,-1.2048 6.1318,-8.0182 6.2836,-7.5154 0,0 0.8324,0.006 0.8227,1.056 -0.0372,4.0385 -0.1206,4.1058 -0.9473,6.678 -0.3352,1.2329 -0.8103,1.9569 -0.007,2.9435 1.4015,1.7215 0.8841,1.4359 2.1492,0.3963 1.1735,0.9852 1.2687,1.498 3.0541,0.4454 2.2336,-1.3169 2.9257,-4.1196 1.195,-6.1831 4.3231,-4.7941 -1.01,-8.6484 -6.0424,-7.154 -1.9616,-0.8506 -6.0648,-2.0226 -7.2989,-1.3788 z m 10.4795,6.8492 c 2.1739,-0.1189 4.0004,-3.5305 0.0777,-3.1535 z m -0.9976,5.6154 c 1.4319,0.4852 2.7238,-1.3357 2.4793,-2.731 -0.6588,-0.6509 -0.7596,-0.7426 -1.8448,-0.6862 -0.5652,0.9336 -0.9951,2.566 -0.6345,3.4172 z"
     style="fill:#291672;fill-rule:evenodd;stroke:#ffffff;stroke-width:0.5068;stroke-linecap:butt;stroke-linejoin:round;stroke-dasharray:none"
     id="path32" />
  <path
     d="m 123.7895,82.8454 c 0.0742,-1.3617 -1.9512,-5.8775 -2.4916,-7.5036 4.1466,2.7149 3.9626,5.9173 7.8834,6.0665 -0.5212,-2.0986 -1.7054,-3.6975 -2.213,-6.1019 -1.7522,-2.7948 -0.776,-7.2124 -4.1558,-6.6647 -0.1768,1.4995 1.459,5.3304 1.9653,6.8662 -1.0648,-0.6484 -2.7014,-2.5356 -3.8073,-3.5295 -1.305,-1.1729 -1.9866,-2.5938 -4.4231,-1.5168 0.5141,1.2504 1.1443,1.1928 1.7756,2.7625 1.4089,3.503 1.5234,9.2238 5.4665,9.6213 z"
     style="fill:#291672;fill-rule:evenodd;stroke:#ffffff;stroke-width:0.5068;stroke-linecap:butt;stroke-linejoin:round;stroke-dasharray:none"
     id="path34" />
  <path
     d="m 110.3093,80.5119 c 0.1696,1.2808 0.2493,0.843 0.8313,1.6032 1.36,1.7758 -0.4401,3.518 3.51,3.2541 l -0.4297,-3.9619 2.4474,-0.8923 c 0.9216,3.6296 1.1727,4.6006 3.8005,3.8559 0.2147,-0.5349 0.1767,0.0644 0.0447,-0.6853 -0.048,-0.2724 -0.108,-0.3607 -0.1976,-0.5863 -0.197,-0.4965 -0.3946,-0.8414 -0.6247,-1.3852 -0.4343,-1.0267 -0.9115,-1.9295 -1.189,-3.0268 -1.9948,-2.3768 -1.9387,-7.4655 -5.977,-6.9121 l 0.5584,1.3371 c -2.3345,0.2344 -1.0627,3.6514 -1.6994,6.8744 -0.7419,0.4737 -0.3857,0.3451 -1.0749,0.5252 z m 3.6688,-1.6075 1.809,-0.1724 c -0.2758,-1.0432 -0.8338,-2.501 -1.6182,-3.1403 z"
     style="fill:#291672;fill-rule:evenodd;stroke:#ffffff;stroke-width:0.5068;stroke-linecap:butt;stroke-linejoin:round;stroke-dasharray:none"
     id="path36" />
  <path
     d="m 81.2603,82.6316 c -0.0858,1.8007 -0.4747,3.2957 -0.2309,5.1568 2.6701,0.5629 2.2726,-0.362 2.3963,-1.8844 0.2951,-3.6368 -0.1508,-4.8308 2.639,0.1459 2.0032,3.0193 2.1328,3.1897 4.4747,2.4548 -0.2747,-0.6712 -3.4264,-4.3839 -4.6097,-6.7197 1.4307,-1.2507 1.602,-1.3718 2.5325,-3.2806 0.9048,-1.8557 1.003,-2.913 -0.6755,-3.7117 -0.8339,0.5781 -1.8881,3.8031 -3.6474,5.2008 -0.0869,-3.895 1.2106,-5.2289 -2.4262,-5.2989 z"
     style="fill:#29166f;fill-rule:evenodd;stroke:#ffffff;stroke-width:0.5068;stroke-linecap:butt;stroke-linejoin:round;stroke-dasharray:none"
     id="path38" />
  <path
     d="m 50.6196,82.8929 c 1.4992,0.0423 2.8044,-1.548 3.4677,-2.4178 1.2933,-1.696 5.1348,-9.3428 1.5808,-10.2321 -0.8334,1.2507 -1.946,5.9465 -3.1007,8.2323 -5.5519,6.0833 0.0394,-8.4185 0.002,-9.184 l -1.638,-0.8368 c -1.0266,1.2035 -1.9377,3.259 -2.577,5.1719 -0.875,2.6192 -1.9526,9.1477 2.2652,9.2665 z"
     style="fill:#291672;fill-rule:evenodd;stroke:#ffffff;stroke-width:0.5068;stroke-linecap:butt;stroke-linejoin:round;stroke-dasharray:none"
     id="path40" />
  <path
     d="m 74.7722,87.4656 c 1.4133,0.6356 4.3205,0.3691 5.3717,-0.6092 0.1057,-2.5778 -1.957,-1.0667 -4.1624,-1.4388 l 0.4151,-3.508 3.1573,-0.1897 c 0.1942,-2.0814 -0.8742,-1.862 -2.5991,-2.0871 -0.2038,-1.2056 0.3849,-2.1653 0.6669,-3.2295 l 3.4132,-0.009 c -0.5481,-2.2883 -4.7433,-3.1628 -6.7389,-1.937 -0.4124,0.551 -0.4182,-0.1796 -0.2312,1.0209 0.054,0.3469 0.3055,0.6416 0.4505,0.9845 0.7414,1.7513 -3.108,9.4891 0.2569,11.0025 z"
     style="fill:#271671;fill-rule:evenodd;stroke:#ffffff;stroke-width:0.5068;stroke-linecap:butt;stroke-linejoin:round;stroke-dasharray:none"
     id="path42" />
  <path
     d="m 98.4943,82.6898 c 2.5924,1.5515 -0.2008,4.0652 -2.8187,2.1923 -0.5782,0.8943 -0.5043,0.8523 -0.3635,2.0862 4.275,2.433 11.1766,-2.9383 2.4213,-7.2423 -3.0072,-1.9532 -0.2461,-3.5979 0.8819,-3.7551 -0.6345,4.7414 3.1459,1.0911 2.227,-0.9542 -1.0634,-2.0896 -5.5634,-1.3336 -6.6404,1.9269 -1.1874,3.5945 3.3424,4.7299 4.2924,5.7462 z"
     style="fill:#291672;fill-rule:evenodd;stroke:#ffffff;stroke-width:0.5068;stroke-linecap:butt;stroke-linejoin:round;stroke-dasharray:none"
     id="path44" />
  <path
     d="m 101.9724,74.4596 c 0.4234,2.4698 1.7691,1.3188 3.1263,1.2286 0.493,1.4672 0.6436,4.6256 0.8434,6.3347 0.3453,2.955 -0.1809,3.9841 3.0591,4.3736 0.0802,-3.4056 -1.4289,-7.2404 -1.2104,-11.3733 l 2.2818,-0.7511 c -0.9309,-3.8371 -7.5177,-0.3876 -8.1002,0.1875 z"
     style="fill:#291672;fill-rule:evenodd;stroke:#ffffff;stroke-width:0.5068;stroke-linecap:butt;stroke-linejoin:round;stroke-dasharray:none"
     id="path46" />
  <path
     d="m 94.0597,88.0134 c -0.0366,-3.1224 -0.321,-9.6459 -0.6815,-12.4947 -0.6905,-0.3794 -1.5702,-1.1136 -2.7057,-1.2665 0.244,7.493 0.4114,7.5434 0.4986,13.3287 0,0 1.6936,0.4633 2.8886,0.4325 z"
     style="fill:#29166d;fill-rule:evenodd;stroke:#ffffff;stroke-width:0.5068;stroke-linecap:butt;stroke-linejoin:round;stroke-dasharray:none"
     id="path48" />
</svg>
