<svg width="30" height="30" viewBox="0 0 30 30" fill="none" xmlns="http://www.w3.org/2000/svg">
<path fill-rule="evenodd" clip-rule="evenodd" d="M15 0C6.71573 0 0 6.71573 0 15C0 23.2843 6.71573 30 15 30C23.2843 30 30 23.2843 30 15C30 6.71573 23.2843 0 15 0ZM16.0015 15.8769V24.9999L12.33 25V15.877H9.25995V12.3217H12.3301V9.69964C12.3301 6.65682 14.1885 5 16.9029 5C18.203 5 19.3206 5.09677 19.6463 5.13994V8.31981L17.7636 8.32068C16.2874 8.32068 16.0015 9.02223 16.0015 10.0516V12.3216H19.5222L19.0638 15.8769H16.0015Z" fill="white"/>
</svg>
