<svg width="30" height="30" viewBox="0 0 30 30" fill="none" xmlns="http://www.w3.org/2000/svg">
<path fill-rule="evenodd" clip-rule="evenodd" d="M15 0C6.71573 0 0 6.71573 0 15C0 23.2843 6.71573 30 15 30C23.2843 30 30 23.2843 30 15C30 6.71573 23.2843 0 15 0ZM15.0003 11.8748C13.2745 11.8748 11.8759 13.2742 11.8759 15C11.8759 16.7258 13.2745 18.1252 15.0003 18.1252C16.7262 18.1252 18.1256 16.7258 18.1256 15C18.1256 13.2742 16.7262 11.8748 15.0003 11.8748ZM15.0003 19.8139C12.3416 19.8139 10.1864 17.6587 10.1864 15C10.1864 12.3412 12.3416 10.1861 15.0003 10.1861C17.6591 10.1861 19.8143 12.3412 19.8143 15C19.8143 17.6587 17.6591 19.8139 15.0003 19.8139ZM19.0692 10.6203C18.9457 10.4352 18.8798 10.2177 18.8799 9.99517C18.8801 9.69693 18.9988 9.41098 19.2097 9.20012C19.4206 8.98927 19.7066 8.87076 20.0049 8.87062H20.0053C20.2278 8.87071 20.4453 8.93678 20.6303 9.06047C20.8152 9.18416 20.9593 9.35992 21.0444 9.56552C21.1295 9.77112 21.1517 9.99733 21.1082 10.2155C21.0647 10.4338 20.9574 10.6342 20.8001 10.7914C20.6427 10.9487 20.4422 11.0558 20.2239 11.0991C20.0057 11.1424 19.7795 11.12 19.5739 11.0348C19.3684 10.9496 19.1928 10.8053 19.0692 10.6203ZM9.47188 22.3085C9.80202 22.4371 10.2988 22.5894 11.2129 22.631C12.2008 22.6765 12.4968 22.6855 15.0003 22.6855C17.5039 22.6855 17.8008 22.6765 18.789 22.631C19.703 22.5895 20.1999 22.4372 20.5299 22.3085C20.9676 22.1381 21.2804 21.9349 21.6083 21.6073C21.9362 21.2797 22.1391 20.9674 22.3095 20.5297C22.4374 20.1995 22.5904 19.7027 22.632 18.7887C22.6775 17.7997 22.6866 17.5037 22.6866 15.0001C22.6866 12.4965 22.6775 12.2005 22.632 11.2114C22.5905 10.2974 22.4382 9.80047 22.3095 9.47047C22.1391 9.03277 21.9366 8.72003 21.6083 8.39213C21.2799 8.06423 20.9676 7.86053 20.5299 7.69088C20.199 7.56337 19.703 7.41 18.789 7.36837C17.7999 7.32368 17.5028 7.31385 15.0003 7.31385C12.4979 7.31385 12.201 7.32293 11.2129 7.36837C10.2988 7.40992 9.80188 7.56217 9.47188 7.69088C9.03343 7.86053 8.72143 8.06378 8.39353 8.39213C8.06563 8.72048 7.86268 9.03277 7.69228 9.47047C7.56478 9.80145 7.4114 10.2974 7.36978 11.2114C7.32508 12.2005 7.31525 12.4965 7.31525 15.0001C7.31525 17.5037 7.32433 17.8005 7.36978 18.7887C7.41133 19.7027 7.56358 20.1997 7.69228 20.5297C7.86193 20.9674 8.06518 21.2794 8.39353 21.6073C8.72188 21.9352 9.03418 22.1381 9.47188 22.3085ZM8.85965 6.11723C9.45522 5.88548 10.1372 5.72722 11.1352 5.68178C12.1354 5.63557 12.4551 5.625 15.0011 5.625C17.547 5.625 17.8666 5.63632 18.8662 5.68178C19.8635 5.72647 20.5451 5.88548 21.1418 6.11723C21.7575 6.35655 22.2808 6.6768 22.8018 7.19858C23.3227 7.72035 23.6431 8.24288 23.8831 8.8593C24.1149 9.45487 24.2731 10.1368 24.3186 11.1349C24.364 12.1345 24.3746 12.4541 24.3746 15C24.3746 17.5459 24.364 17.8648 24.3186 18.8651C24.2739 19.8631 24.1149 20.5448 23.8831 21.1407C23.6431 21.7571 23.3235 22.2805 22.8018 22.8014C22.28 23.3224 21.7575 23.6428 21.141 23.8828C20.5451 24.1145 19.8636 24.2728 18.8655 24.3182C17.8659 24.3644 17.5463 24.375 15.0003 24.375C12.4544 24.375 12.1354 24.3637 11.1352 24.3182C10.1372 24.2728 9.45635 24.1145 8.85965 23.8828C8.24285 23.6428 7.72063 23.3221 7.19893 22.8014C6.67723 22.2807 6.3569 21.7571 6.11758 21.1407C5.88583 20.5448 5.72758 19.8632 5.68213 18.8651C5.63593 17.8655 5.62535 17.5459 5.62535 15C5.62535 12.4541 5.63593 12.1345 5.68213 11.1349C5.72758 10.1369 5.88583 9.45525 6.11758 8.8593C6.3569 8.2425 6.67715 7.71952 7.19893 7.19858C7.7207 6.67762 8.24285 6.35655 8.85965 6.11723Z" fill="white"/>
</svg>
