<svg width="30" height="30" viewBox="0 0 30 30" fill="none" xmlns="http://www.w3.org/2000/svg">
<path fill-rule="evenodd" clip-rule="evenodd" d="M15 0C6.71573 0 0 6.71573 0 15C0 23.2843 6.71573 30 15 30C23.2843 30 30 23.2843 30 15C30 6.71573 23.2843 0 15 0ZM19.7763 21.9253C19.7763 21.9253 19.3832 22.8864 18.3347 22.4277L14.403 19.4134L11.8693 21.7069C11.8693 21.7069 11.6727 21.8598 11.4543 21.7724C11.4543 21.7724 11.2577 21.7506 11.0393 21.0298C10.799 20.2871 9.61952 16.421 9.61952 16.421L5.7097 15.1104C5.7097 15.1104 5.11995 14.892 5.05442 14.4333C4.98889 13.9746 5.73154 13.7125 5.73154 13.7125L21.2616 7.61841C21.2616 7.61841 22.5285 7.05051 22.5503 7.98974L19.7763 21.9253ZM19.536 10.4579C19.5579 10.1303 19.0118 10.4579 19.0118 10.4579L10.4277 15.9186C10.2966 16.006 10.2529 16.1588 10.2966 16.2899L11.3232 19.6537C11.3887 19.8502 11.6727 19.8284 11.7164 19.61L11.9566 17.5568C11.9566 17.4694 12.0003 17.4039 12.0659 17.3602C12.8959 16.6175 19.0773 11.0695 19.3394 10.8074C19.6234 10.5016 19.536 10.4579 19.536 10.4579Z" fill="white"/>
</svg>
